<svg width="24" height="24" viewBox="0 0 24 24" fill="none" xmlns="http://www.w3.org/2000/svg">
<path d="M16.8499 0H7.14891C5.25338 0.00222758 3.43614 0.756294 2.0959 2.09675C0.75567 3.43721 0.00190887 5.25458 0 7.15011V16.8511C0.00222758 18.7466 0.756294 20.5639 2.09675 21.9041C3.43721 23.2443 5.25458 23.9981 7.15011 24H16.8511C18.7466 23.9978 20.5639 23.2437 21.9041 21.9032C23.2443 20.5628 23.9981 18.7454 24 16.8499V7.14891C23.9978 5.25338 23.2437 3.43614 21.9032 2.0959C20.5628 0.75567 18.7454 0.00190887 16.8499 0ZM21.5862 16.8499C21.5862 17.4719 21.4637 18.0878 21.2256 18.6624C20.9876 19.237 20.6388 19.7591 20.1989 20.1989C19.7591 20.6388 19.237 20.9876 18.6624 21.2256C18.0878 21.4637 17.4719 21.5862 16.8499 21.5862H7.14891C5.89298 21.5859 4.68859 21.0867 3.80063 20.1985C2.91266 19.3103 2.41382 18.1058 2.41382 16.8499V7.14891C2.41414 5.89298 2.91328 4.68859 3.80148 3.80063C4.68967 2.91266 5.89418 2.41382 7.15011 2.41382H16.8511C18.107 2.41414 19.3114 2.91328 20.1994 3.80148C21.0873 4.68967 21.5862 5.89418 21.5862 7.15011V16.8499Z" fill="white"/>
<path d="M11.9994 5.79294C10.3542 5.79548 8.7772 6.45023 7.614 7.61365C6.45081 8.77707 5.79637 10.3542 5.79414 11.9994C5.79605 13.645 6.45052 15.2226 7.614 16.3863C8.77749 17.5501 10.355 18.2048 12.0006 18.2071C13.6464 18.2052 15.2242 17.5505 16.388 16.3868C17.5517 15.223 18.2064 13.6452 18.2083 11.9994C18.2057 10.3538 17.5506 8.77642 16.3867 7.61316C15.2228 6.44989 13.645 5.79573 11.9994 5.79414V5.79294ZM11.9994 15.7932C10.9935 15.7932 10.0289 15.3937 9.3176 14.6824C8.60634 13.9711 8.20676 13.0065 8.20676 12.0006C8.20676 10.9947 8.60634 10.0301 9.3176 9.3188C10.0289 8.60754 10.9935 8.20796 11.9994 8.20796C13.0053 8.20796 13.9699 8.60754 14.6812 9.3188C15.3925 10.0301 15.792 10.9947 15.792 12.0006C15.792 13.0065 15.3925 13.9711 14.6812 14.6824C13.9699 15.3937 13.0053 15.7932 11.9994 15.7932Z" fill="white"/>
<path d="M18.2191 7.32682C19.0403 7.32682 19.7061 6.66107 19.7061 5.83982C19.7061 5.01857 19.0403 4.35282 18.2191 4.35282C17.3978 4.35282 16.7321 5.01857 16.7321 5.83982C16.7321 6.66107 17.3978 7.32682 18.2191 7.32682Z" fill="white"/>
</svg>
