<svg width="145" height="145" viewBox="0 0 145 145" fill="none" xmlns="http://www.w3.org/2000/svg">
<circle cx="72.5" cy="72.5" r="71" stroke="url(#paint0_linear)" stroke-width="3"/>
<path d="M68.0365 66.126H63.9205C64.0325 63.914 64.8305 62.094 66.3145 60.666C67.7985 59.238 69.8425 58.524 72.4465 58.524C74.9945 58.524 77.0105 59.294 78.4945 60.834C79.8385 62.206 80.5105 63.984 80.5105 66.168C80.5105 67.568 80.1885 68.8 79.5445 69.864C78.9005 70.872 78.0605 71.656 77.0245 72.216C78.2005 72.664 79.1245 73.406 79.7965 74.442C80.5805 75.59 80.9725 77.032 80.9725 78.768C80.9725 81.344 80.1745 83.43 78.5785 85.026C76.9545 86.65 74.6725 87.462 71.7325 87.462C69.0165 87.462 66.9305 86.678 65.4745 85.11C64.1025 83.654 63.3045 81.75 63.0805 79.398H67.1965C67.4205 80.658 67.9245 81.666 68.7085 82.422C69.6045 83.262 70.7385 83.682 72.1105 83.682C73.4265 83.682 74.5185 83.29 75.3865 82.506C76.3665 81.582 76.8565 80.266 76.8565 78.558C76.8565 77.158 76.4365 76.052 75.5965 75.24C74.7285 74.4 73.5245 73.98 71.9845 73.98H71.1445V70.368H71.7325C73.3005 70.368 74.4905 69.962 75.3025 69.15C76.0305 68.422 76.3945 67.428 76.3945 66.168C76.3945 65.02 76.0305 64.082 75.3025 63.354C74.5745 62.654 73.5805 62.304 72.3205 62.304C70.9765 62.304 69.9405 62.682 69.2125 63.438C68.9325 63.746 68.6945 64.124 68.4985 64.572C68.3025 64.992 68.1765 65.328 68.1205 65.58C68.0645 65.832 68.0365 66.014 68.0365 66.126Z" fill="url(#paint1_linear)"/>
<defs>
<linearGradient id="paint0_linear" x1="-1.58774e-07" y1="73" x2="145" y2="73" gradientUnits="userSpaceOnUse">
<stop stop-color="#24C5DB"/>
<stop offset="1" stop-color="#504B9D"/>
</linearGradient>
<linearGradient id="paint1_linear" x1="61" y1="73.1862" x2="85" y2="73.1862" gradientUnits="userSpaceOnUse">
<stop stop-color="#24C5DB"/>
<stop offset="1" stop-color="#504B9D"/>
</linearGradient>
</defs>
</svg>
