<svg width="134" height="115" viewBox="0 0 134 115" fill="none" xmlns="http://www.w3.org/2000/svg">
<path fill-rule="evenodd" clip-rule="evenodd" d="M15.897 84.0425C16.7649 83.7914 17.6861 83.7914 18.5541 84.0425C23.2578 85.4034 29.2662 86.25 35.8928 86.25C42.5194 86.25 48.5279 85.4034 53.2316 84.0425C54.0995 83.7914 55.0207 83.7914 55.8887 84.0425C59.9849 85.2277 63.6955 86.8518 66.4915 88.9598C69.2216 91.0181 71.7857 94.1147 71.7857 98.2292C71.7857 101.698 69.9419 104.464 67.7751 106.437C65.6097 108.409 62.7432 109.964 59.6069 111.172C53.3023 113.6 44.9167 115 35.8928 115C26.869 115 18.4834 113.6 12.1788 111.172C9.04248 109.964 6.176 108.409 4.01058 106.437C1.84378 104.464 0 101.698 0 98.2292C0 94.1148 2.56409 91.0181 5.29417 88.9598C8.09013 86.8518 11.8008 85.2277 15.897 84.0425ZM9.57639 98.2334C9.60952 98.3506 9.76785 98.7259 10.45 99.3469C11.4327 100.242 13.1218 101.267 15.6147 102.227C20.5687 104.135 27.7367 105.417 35.8928 105.417C44.049 105.417 51.2169 104.135 56.1709 102.227C58.6639 101.267 60.3529 100.242 61.3357 99.3469C62.0178 98.7258 62.1762 98.3506 62.2093 98.2334C62.1715 98.0968 61.9465 97.5296 60.734 96.6154C59.3908 95.6027 57.3024 94.5514 54.4858 93.6342C49.0732 95.0421 42.6787 95.8333 35.8928 95.8333C29.1069 95.8333 22.7124 95.0421 17.2999 93.6342C14.4833 94.5513 12.3949 95.6027 11.0517 96.6154C9.83912 97.5296 9.61415 98.0969 9.57639 98.2334Z" fill="url(#paint0_linear)"/>
<path fill-rule="evenodd" clip-rule="evenodd" d="M15.897 62.48C16.7649 62.2289 17.6861 62.2289 18.5541 62.48C23.2578 63.8409 29.2662 64.6875 35.8928 64.6875C42.5194 64.6875 48.5279 63.8409 53.2316 62.48C54.0995 62.2289 55.0207 62.2289 55.8887 62.48C59.9849 63.6652 63.6955 65.2893 66.4915 67.3973C69.2216 69.4556 71.7857 72.5522 71.7857 76.6667C71.7857 80.1351 69.9419 82.9018 67.7751 84.8746C65.6097 86.8462 62.7432 88.4017 59.6069 89.6095C53.3023 92.0374 44.9167 93.4375 35.8928 93.4375C26.869 93.4375 18.4834 92.0374 12.1788 89.6095C9.04248 88.4017 6.176 86.8462 4.01058 84.8746C1.84378 82.9018 0 80.1351 0 76.6667C0 72.5522 2.56409 69.4556 5.29417 67.3973C8.09013 65.2893 11.8008 63.6652 15.897 62.48ZM9.57639 76.6709C9.60952 76.7881 9.76785 77.1633 10.45 77.7844C11.4327 78.6792 13.1218 79.7049 15.6147 80.6649C20.5687 82.5727 27.7367 83.8542 35.8928 83.8542C44.049 83.8542 51.2169 82.5727 56.1709 80.6649C58.6639 79.7049 60.3529 78.6792 61.3357 77.7844C62.0178 77.1633 62.1762 76.7881 62.2093 76.6709C62.1715 76.5343 61.9465 75.9671 60.734 75.0529C59.3908 74.0402 57.3024 72.9889 54.4858 72.0717C49.0732 73.4796 42.6787 74.2708 35.8928 74.2708C29.1069 74.2708 22.7124 73.4796 17.2999 72.0717C14.4833 72.9888 12.3949 74.0402 11.0517 75.0529C9.83912 75.9671 9.61415 76.5344 9.57639 76.6709Z" fill="url(#paint1_linear)"/>
<path fill-rule="evenodd" clip-rule="evenodd" d="M15.897 43.3133C16.7649 43.0622 17.6861 43.0622 18.5541 43.3133C23.2578 44.6743 29.2662 45.5208 35.8928 45.5208C42.5194 45.5208 48.5279 44.6743 53.2316 43.3133C54.0995 43.0622 55.0207 43.0622 55.8887 43.3133C59.9849 44.4985 63.6955 46.1226 66.4915 48.2306C69.2216 50.2889 71.7857 53.3856 71.7857 57.5C71.7857 60.9685 69.9419 63.7352 67.7751 65.7079C65.6097 67.6795 62.7432 69.235 59.6069 70.4428C53.3023 72.8707 44.9167 74.2708 35.8928 74.2708C26.869 74.2708 18.4834 72.8707 12.1788 70.4428C9.04248 69.235 6.176 67.6795 4.01058 65.7079C1.84378 63.7352 0 60.9685 0 57.5C0 53.3856 2.56409 50.2889 5.29417 48.2306C8.09013 46.1226 11.8008 44.4985 15.897 43.3133ZM9.57639 57.5042C9.60952 57.6215 9.76785 57.9967 10.45 58.6177C11.4327 59.5125 13.1218 60.5382 15.6147 61.4983C20.5687 63.406 27.7367 64.6875 35.8928 64.6875C44.049 64.6875 51.2169 63.406 56.1709 61.4983C58.6639 60.5382 60.3529 59.5125 61.3357 58.6177C62.0178 57.9967 62.1762 57.6215 62.2093 57.5042C62.1715 57.3677 61.9465 56.8004 60.734 55.8863C59.3908 54.8736 57.3024 53.8222 54.4858 52.9051C49.0732 54.3129 42.6787 55.1042 35.8928 55.1042C29.1069 55.1042 22.7124 54.3129 17.2999 52.9051C14.4833 53.8222 12.3949 54.8736 11.0517 55.8862C9.83912 56.8004 9.61415 57.3677 9.57639 57.5042Z" fill="url(#paint2_linear)"/>
<path fill-rule="evenodd" clip-rule="evenodd" d="M15.897 24.1467C16.7649 23.8956 17.6861 23.8956 18.5541 24.1467C23.2578 25.5076 29.2662 26.3542 35.8928 26.3542C42.5194 26.3542 48.5279 25.5076 53.2316 24.1467C54.0995 23.8956 55.0207 23.8956 55.8887 24.1467C59.9849 25.3318 63.6955 26.956 66.4915 29.0639C69.2216 31.1222 71.7857 34.2189 71.7857 38.3333C71.7857 41.8018 69.9419 44.5685 67.7751 46.5413C65.6097 48.5128 62.7432 50.0684 59.6069 51.2762C53.3023 53.704 44.9167 55.1042 35.8928 55.1042C26.869 55.1042 18.4834 53.704 12.1788 51.2762C9.04248 50.0684 6.176 48.5128 4.01058 46.5413C1.84378 44.5685 0 41.8018 0 38.3333C0 34.2189 2.56409 31.1222 5.29417 29.0639C8.09013 26.956 11.8008 25.3318 15.897 24.1467ZM9.57639 38.3376C9.60952 38.4548 9.76785 38.83 10.45 39.451C11.4327 40.3458 13.1218 41.3716 15.6147 42.3316C20.5687 44.2393 27.7367 45.5208 35.8928 45.5208C44.049 45.5208 51.2169 44.2393 56.1709 42.3316C58.6639 41.3716 60.3529 40.3458 61.3357 39.451C62.0178 38.83 62.1762 38.4548 62.2093 38.3376C62.1715 38.201 61.9465 37.6338 60.734 36.7196C59.3908 35.7069 57.3024 34.6555 54.4858 33.7384C49.0732 35.1462 42.6787 35.9375 35.8928 35.9375C29.1069 35.9375 22.7124 35.1462 17.2999 33.7384C14.4833 34.6555 12.3949 35.7069 11.0517 36.7196C9.83912 37.6338 9.61415 38.201 9.57639 38.3376Z" fill="url(#paint3_linear)"/>
<path fill-rule="evenodd" clip-rule="evenodd" d="M9.57522 16.7708C9.60567 16.6586 9.75939 16.2819 10.45 15.6531C11.4327 14.7583 13.1218 13.7326 15.6147 12.7726C20.5687 10.8648 27.7367 9.58333 35.8928 9.58333C44.049 9.58333 51.2169 10.8648 56.1709 12.7726C58.6639 13.7326 60.3529 14.7583 61.3357 15.6531C62.0263 16.2819 62.18 16.6586 62.2105 16.7708C62.18 16.883 62.0263 17.2598 61.3357 17.8885C60.3529 18.7833 58.6639 19.8091 56.1709 20.7691C51.2169 22.6768 44.049 23.9583 35.8928 23.9583C27.7367 23.9583 20.5687 22.6768 15.6147 20.7691C13.1218 19.8091 11.4327 18.7833 10.45 17.8885C9.75939 17.2598 9.60567 16.883 9.57522 16.7708ZM12.1788 3.828C18.4834 1.40015 26.869 0 35.8928 0C44.9167 0 53.3023 1.40015 59.6069 3.828C62.7432 5.03578 65.6097 6.59134 67.7751 8.56288C69.9419 10.5357 71.7857 13.3024 71.7857 16.7708C71.7857 20.2393 69.9419 23.006 67.7751 24.9788C65.6097 26.9503 62.7432 28.5059 59.6069 29.7137C53.3023 32.1415 44.9167 33.5417 35.8928 33.5417C26.869 33.5417 18.4834 32.1415 12.1788 29.7137C9.04248 28.5059 6.176 26.9503 4.01058 24.9788C1.84378 23.006 0 20.2393 0 16.7708C0 13.3024 1.84378 10.5357 4.01058 8.56288C6.176 6.59134 9.04248 5.03578 12.1788 3.828Z" fill="url(#paint4_linear)"/>
<path fill-rule="evenodd" clip-rule="evenodd" d="M106.92 1.18557C108.724 -0.39519 111.418 -0.39519 113.223 1.18557L132.366 17.9564C134.355 19.699 134.556 22.7262 132.816 24.7178C131.075 26.7094 128.052 26.9112 126.063 25.1686L114.857 15.3514V110.208C114.857 112.855 112.714 115 110.071 115C107.428 115 105.286 112.855 105.286 110.208V15.3514L94.0799 25.1686C92.0908 26.9112 89.0674 26.7094 87.3269 24.7178C85.5864 22.7262 85.788 19.699 87.7771 17.9564L106.92 1.18557Z" fill="url(#paint5_linear)"/>
<defs>
<linearGradient id="paint0_linear" x1="-1.46729e-07" y1="57.8966" x2="134" y2="57.8966" gradientUnits="userSpaceOnUse">
<stop stop-color="#027BBB"/>
<stop offset="0.395833" stop-color="#24D6CB"/>
<stop offset="0.994792" stop-color="#0076BA"/>
</linearGradient>
<linearGradient id="paint1_linear" x1="-1.46729e-07" y1="57.8966" x2="134" y2="57.8966" gradientUnits="userSpaceOnUse">
<stop stop-color="#027BBB"/>
<stop offset="0.395833" stop-color="#24D6CB"/>
<stop offset="0.994792" stop-color="#0076BA"/>
</linearGradient>
<linearGradient id="paint2_linear" x1="-1.46729e-07" y1="57.8966" x2="134" y2="57.8966" gradientUnits="userSpaceOnUse">
<stop stop-color="#027BBB"/>
<stop offset="0.395833" stop-color="#24D6CB"/>
<stop offset="0.994792" stop-color="#0076BA"/>
</linearGradient>
<linearGradient id="paint3_linear" x1="-1.46729e-07" y1="57.8966" x2="134" y2="57.8966" gradientUnits="userSpaceOnUse">
<stop stop-color="#027BBB"/>
<stop offset="0.395833" stop-color="#24D6CB"/>
<stop offset="0.994792" stop-color="#0076BA"/>
</linearGradient>
<linearGradient id="paint4_linear" x1="-1.46729e-07" y1="57.8966" x2="134" y2="57.8966" gradientUnits="userSpaceOnUse">
<stop stop-color="#027BBB"/>
<stop offset="0.395833" stop-color="#24D6CB"/>
<stop offset="0.994792" stop-color="#0076BA"/>
</linearGradient>
<linearGradient id="paint5_linear" x1="-1.46729e-07" y1="57.8966" x2="134" y2="57.8966" gradientUnits="userSpaceOnUse">
<stop stop-color="#027BBB"/>
<stop offset="0.395833" stop-color="#24D6CB"/>
<stop offset="0.994792" stop-color="#0076BA"/>
</linearGradient>
</defs>
</svg>
