<svg width="846" height="836" viewBox="0 0 846 836" fill="none" xmlns="http://www.w3.org/2000/svg">
<path d="M380.286 2.03462C379.379 2.787 377.98 4.3304 377.321 5.56625C376.662 6.8021 371.496 24.985 365.852 46.0529C360.193 67.0565 354.999 85.9901 354.278 88.1199C352.133 94.3019 352.375 94.178 334.642 99.0518L318.961 103.448L315.172 102.571C311.384 101.694 310.88 101.271 280.282 73.557C263.163 58.1283 248.345 44.7348 247.257 43.8381C244.813 41.7687 241.168 40.9264 237.832 41.7033C235.074 42.3456 168.14 83.3693 166.041 85.6845C162.933 89.1819 162.881 92.4412 165.768 101.646C171.731 120.281 183.652 157.823 186.341 166.465L189.397 176.104L188.389 180.195C187.414 184.142 186.907 184.869 176.366 196.524C170.283 203.218 164.386 209.259 163.257 209.927C158.355 212.692 157.669 212.649 112.367 205.137C65.8691 197.43 67.1925 197.595 62.7119 201.006C60.5432 202.729 26.6878 273.121 26.4429 276.425C26.363 278.405 26.647 279.624 27.5935 281.366C28.4803 282.85 40.6767 293.405 61.6305 310.781C89.978 334.351 94.4987 338.372 95.7828 340.982C97.6522 344.944 97.6522 344.944 93.9452 366.778C90.7074 386.271 89.6223 389.162 85.037 392.124C83.6812 392.981 65.2388 401.2 43.9054 410.362C3.32993 427.794 3.15243 427.903 1.22646 432.41C-1.06327 437.679 8.56382 516.48 11.6317 517.457C12.0764 517.624 32.0713 520.138 56.0217 523.085C79.9721 526.031 100.634 528.796 101.874 529.183C106.676 530.636 108.281 533.171 117.091 553.579C121.605 563.96 125.585 573.79 125.988 575.522C126.452 577.511 126.382 579.828 125.873 581.705C125.344 583.79 117.805 595.558 101.469 619.792C88.4407 639.062 77.4809 655.888 77.0143 657.079C76.4942 658.621 76.4978 660.379 77.07 662.546C77.7575 665.497 80.1233 668.397 101.558 693.644C114.652 708.927 126.311 722.11 127.512 722.912C128.635 723.666 130.892 724.358 132.457 724.399C135.124 724.522 138.068 723.228 173.318 706.157C213.06 686.89 214.49 686.354 219.681 687.445C222.467 688.081 259.47 711.936 262.013 714.726C265.497 718.65 265.667 719.963 265.072 747.026C263.7 809.38 263.722 808.022 265.198 810.587C265.912 811.909 267.372 813.531 268.351 814.25C269.33 814.969 286.101 820.196 305.614 825.867C337.753 835.227 341.414 836.133 344.044 835.521C345.776 835.117 347.709 834.126 348.65 833.23C349.576 832.271 360.087 815.549 372.083 795.911C384.078 776.273 394.767 759.442 395.965 758.487C400.065 754.893 401.378 754.723 426.082 754.517C438.834 754.389 450.095 754.54 451.064 754.923C456.162 756.78 456.553 757.298 479.781 795.184C501.686 830.875 502.31 831.812 505.256 833.426C506.966 834.381 509.352 835.043 510.823 834.971C516.915 834.702 552.75 823.921 575.285 815.562C585.491 811.764 587.482 810.15 588.158 804.919C588.377 803.245 588.157 783.137 587.631 760.259C587.081 732.921 587.005 717.785 587.476 716.323C589.051 711.762 590.688 710.366 608.52 698.366C627.742 685.366 630.302 684.161 635.568 685.573C636.872 685.946 654.331 694.124 674.306 703.814C694.346 713.489 711.677 721.697 712.917 722.085C714.522 722.59 716.057 722.503 718.45 721.743C721.677 720.789 722.263 720.111 737.431 701.899C768.241 664.891 771.126 661.31 771.942 659.294C772.438 658.231 772.636 655.885 772.36 654.123C772.024 651.224 769.874 647.801 747.966 615.291C734.733 595.642 723.536 578.632 723.123 577.442C721.451 573.164 722.284 570.061 729.26 553.554C733.028 544.761 736.562 536.7 737.152 535.751C738.814 532.725 742.275 530.161 745.882 529.388C747.614 528.985 767.243 526.443 789.415 523.783L829.661 518.875L832.135 517.014C833.446 515.964 834.924 514.47 835.401 513.615C836.06 512.379 844.496 446.96 845.571 434.735C846.011 430.236 844.291 426.916 840.242 424.341C838.646 423.292 819.942 414.997 798.679 405.878C760.517 389.532 760.058 389.301 757.632 386.145L755.207 382.989L752.764 369.014C749.591 350.743 749.525 349.879 751.091 345.861C752.373 342.654 753.654 341.476 785.379 315.079C803.565 299.952 818.759 287.078 819.232 286.494C820.359 284.946 821.891 282.231 821.022 278.501C812.877 243.522 795.834 210.741 784.732 202.526C783.9 201.57 782.066 200.373 780.51 199.789C777.412 198.684 780.215 198.234 714.196 209.211C688.868 213.418 688.389 213.394 683.768 210.682C680.397 208.694 663.784 189.63 662.528 186.269C661.868 184.596 661.631 182.419 661.786 180.759C661.97 179.228 667.859 159.794 674.864 137.598C687.116 99.026 687.626 97.1484 686.909 94.0683C686.441 92.3506 685.563 90.3228 684.905 89.529C683.697 88.119 617.167 45.502 613.535 43.8448C612.394 43.2988 610.335 43.1694 608.059 43.564L604.343 44.1589L572.84 72.6694C555.524 88.3375 540.272 101.834 538.98 102.676C534.913 105.247 531.802 104.956 518.316 101.062C504.686 97.1324 503.179 96.4686 500.467 93.2442C498.052 90.4242 498.311 91.2435 486.101 45.7854C476.002 8.22459 475.624 6.89196 473.555 4.39719C470.06 0.137275 475.072 0.45842 406.008 0.103285C394.377 0.106058 384.182 0.180078 383.412 0.359348C382.657 0.602786 381.272 1.33147 380.286 2.03462ZM388.33 120.083C406.509 118.284 457.961 111.143 534.649 139.372C602.398 166.66 668.265 220.765 703.181 307.326C711.067 324.634 716.513 338.915 721.429 360.027C725.294 380.257 724.252 375.082 727.075 400.018C732.72 478.117 710.608 560.921 647.564 630.552C619.023 662.074 576.521 694.537 524.769 711.945C481.955 727.941 445.258 729.353 432.084 729.353C347.869 730.764 297.527 706.299 250.95 677.13C154.502 609.381 120.961 519.686 117.091 438.597C112.869 350.147 144.396 286.682 176.366 242.878C222.721 179.363 280.12 148.311 331.872 131.845C366.914 120.695 368.099 123.846 388.33 120.083Z" fill="url(#paint0_linear_1016_3514)"/>
<defs>
<linearGradient id="paint0_linear_1016_3514" x1="-29.5757" y1="528.913" x2="830.893" y2="328.528" gradientUnits="userSpaceOnUse">
<stop stop-color="#0B97C5"/>
<stop offset="0.541667" stop-color="#22D8DA"/>
<stop offset="1" stop-color="#0076BA"/>
</linearGradient>
</defs>
</svg>
