<svg width="107" height="122" viewBox="0 0 107 122" fill="none" xmlns="http://www.w3.org/2000/svg">
<path fill-rule="evenodd" clip-rule="evenodd" d="M53.5 10.6087C44.6359 10.6087 37.4501 17.7331 37.4501 26.5216C37.4501 35.3101 44.6359 42.4346 53.5 42.4346C62.3641 42.4346 69.5499 35.3101 69.5499 26.5216C69.5499 17.7331 62.3641 10.6087 53.5 10.6087ZM26.7502 26.5216C26.7502 11.8741 38.7265 0 53.5 0C68.2735 0 80.2498 11.8741 80.2498 26.5216C80.2498 41.1691 68.2735 53.0433 53.5 53.0433C38.7265 53.0433 26.7502 41.1691 26.7502 26.5216Z" fill="url(#paint0_linear)"/>
<path fill-rule="evenodd" clip-rule="evenodd" d="M46.0991 74.8301L53.5 80.7198L60.9009 74.8301C58.6049 74.4613 56.1426 74.2606 53.5 74.2606C50.8574 74.2606 48.3951 74.4613 46.0991 74.8301ZM72.9214 78.8675L60.4118 88.8226L68.845 103.455C70.0419 105.532 69.6888 108.146 67.9829 109.837L57.283 120.446C55.1937 122.517 51.8063 122.517 49.717 120.446L39.0171 109.837C37.3112 108.146 36.9581 105.532 38.155 103.455L46.5882 88.8226L34.0786 78.8675C24.6565 84.0044 18.8576 92.7342 15.3322 100.93C13.4173 105.381 12.2406 109.527 11.5453 112.557C11.1988 114.067 10.975 115.286 10.8397 116.111C10.7722 116.523 10.7269 116.835 10.6997 117.035C10.686 117.135 10.6769 117.206 10.6718 117.248L10.6677 117.281C10.3397 120.191 7.69511 122.29 4.75962 121.967C1.823 121.644 -0.293098 119.021 0.0331935 116.109L5.35043 116.695C0.0331937 116.109 0.0331935 116.109 0.0331935 116.109L0.0342124 116.1L0.0355918 116.088L0.0394586 116.055L0.0518166 115.953C0.0621818 115.87 0.076904 115.755 0.0965608 115.611C0.135865 115.323 0.194958 114.918 0.278488 114.409C0.44543 113.39 0.710696 111.952 1.112 110.203C1.91233 106.716 3.26597 101.938 5.49003 96.7677C9.90089 86.5139 18.0106 74.109 32.6289 67.7614C38.6052 65.1663 45.5291 63.6519 53.5 63.6519C61.4709 63.6519 68.3948 65.1663 74.3711 67.7614C88.9894 74.109 97.0991 86.5139 101.51 96.7677C103.734 101.938 105.088 106.716 105.888 110.203C106.289 111.952 106.555 113.39 106.722 114.409C106.805 114.918 106.864 115.323 106.903 115.611C106.923 115.755 106.938 115.87 106.948 115.953L106.961 116.055L106.964 116.088L106.966 116.1C106.966 116.1 106.967 116.109 101.65 116.695L106.967 116.109C107.293 119.021 105.177 121.644 102.24 121.967C99.3066 122.29 96.6637 120.197 96.3333 117.289L96.3324 117.281L96.3282 117.248C96.3231 117.206 96.314 117.135 96.3003 117.035C96.2731 116.835 96.2278 116.523 96.1603 116.111C96.025 115.286 95.8012 114.067 95.4547 112.557C94.7594 109.527 93.5827 105.381 91.6678 100.93C88.1424 92.7342 82.3435 84.0044 72.9214 78.8675ZM53.5 98.2126L49.4725 105.201L53.5 109.194L57.5275 105.201L53.5 98.2126Z" fill="url(#paint1_linear)"/>
<defs>
<linearGradient id="paint0_linear" x1="-1.17165e-07" y1="61.4207" x2="107" y2="61.4207" gradientUnits="userSpaceOnUse">
<stop stop-color="#027BBB"/>
<stop offset="0.395833" stop-color="#24D6CB"/>
<stop offset="0.994792" stop-color="#0076BA"/>
</linearGradient>
<linearGradient id="paint1_linear" x1="-1.17165e-07" y1="61.4207" x2="107" y2="61.4207" gradientUnits="userSpaceOnUse">
<stop stop-color="#027BBB"/>
<stop offset="0.395833" stop-color="#24D6CB"/>
<stop offset="0.994792" stop-color="#0076BA"/>
</linearGradient>
</defs>
</svg>
