<svg width="110" height="110" viewBox="0 0 110 110" fill="none" xmlns="http://www.w3.org/2000/svg">
<path fill-rule="evenodd" clip-rule="evenodd" d="M78.5715 47.1429C78.5715 44.9732 80.3304 43.2143 82.5001 43.2143H102.143C104.312 43.2143 106.071 44.9732 106.071 47.1429V106.071C106.071 108.241 104.312 110 102.143 110H82.5001C80.3304 110 78.5715 108.241 78.5715 106.071V47.1429ZM86.4286 51.0714V102.143H98.2142V51.0714H86.4286ZM39.286 62.8571C39.286 60.6875 41.0449 58.9286 43.2146 58.9286H62.8573C65.027 58.9286 66.7859 60.6875 66.7859 62.8571V106.071C66.7859 108.241 65.027 110 62.8573 110H43.2146C41.0449 110 39.286 108.241 39.286 106.071V62.8571ZM47.1431 66.7857V102.143H58.9288V66.7857H47.1431ZM0.000593507 78.5714C0.000593507 76.4017 1.75946 74.6429 3.92914 74.6429H23.5719C25.7415 74.6429 27.5004 76.4017 27.5004 78.5714V106.071C27.5004 108.241 25.7415 110 23.5719 110H3.92914C1.75946 110 0.000593507 108.241 0.000593507 106.071V78.5714ZM7.85769 82.5V102.143H19.6433V82.5H7.85769Z" fill="url(#paint0_linear)"/>
<path fill-rule="evenodd" clip-rule="evenodd" d="M86.4286 3.92857C86.4286 1.75888 88.1875 0 90.3571 0H106.071C108.241 0 110 1.75888 110 3.92857V19.6429C110 21.8125 108.241 23.5714 106.071 23.5714C103.902 23.5714 102.143 21.8125 102.143 19.6429V12.6769L73.3244 38.2934C72.0213 39.4517 70.1107 39.6126 68.6323 38.6886L39.1686 20.2736L5.83701 38.7913C3.94037 39.845 1.54866 39.1617 0.494973 37.265C-0.558715 35.3684 0.124631 32.9767 2.02127 31.923L37.3782 12.2801C38.6278 11.5858 40.1559 11.6252 41.3682 12.3829L70.3026 30.467L95.7385 7.85714H90.3571C88.1875 7.85714 86.4286 6.09826 86.4286 3.92857Z" fill="url(#paint1_linear)"/>
<defs>
<linearGradient id="paint0_linear" x1="-0.000122191" y1="55.3793" x2="110" y2="55.3793" gradientUnits="userSpaceOnUse">
<stop stop-color="#027BBB"/>
<stop offset="0.395833" stop-color="#24D6CB"/>
<stop offset="0.994792" stop-color="#0076BA"/>
</linearGradient>
<linearGradient id="paint1_linear" x1="-0.000122191" y1="55.3793" x2="110" y2="55.3793" gradientUnits="userSpaceOnUse">
<stop stop-color="#027BBB"/>
<stop offset="0.395833" stop-color="#24D6CB"/>
<stop offset="0.994792" stop-color="#0076BA"/>
</linearGradient>
</defs>
</svg>
