<svg width="122" height="114" viewBox="0 0 122 114" fill="none" xmlns="http://www.w3.org/2000/svg">
<path fill-rule="evenodd" clip-rule="evenodd" d="M39.8169 42.6838C22.7134 42.6838 8.8482 56.6529 8.8482 73.8846C8.8482 91.1164 22.7134 105.085 39.8169 105.085C56.9204 105.085 70.7856 91.1164 70.7856 73.8846C70.7856 73.0839 70.7557 72.291 70.6972 71.5069C70.0798 70.3341 68.5467 69.868 67.3586 70.6239C57.2614 77.0478 45.5254 65.2239 51.9015 55.051C52.7707 53.6642 52.0159 51.8283 50.428 51.4669C45.512 50.3481 42.718 46.6969 41.9317 42.7552C41.2333 42.7079 40.5282 42.6838 39.8169 42.6838ZM0 73.8846C0 51.7295 17.8266 33.7693 39.8169 33.7693C42.3031 33.7693 44.7399 33.9994 47.1064 34.4408C48.2944 34.6624 49.3409 35.364 50.0026 36.3825C50.6643 37.4011 50.8838 38.648 50.61 39.8336C50.4572 40.4951 50.5608 41.1889 50.8499 41.7094C51.0984 42.1568 51.5313 42.5788 52.3775 42.7714C59.9269 44.4895 63.5153 53.2177 59.3829 59.8108C58.0417 61.9506 60.5103 64.4377 62.6343 63.0865C68.8618 59.1244 76.9933 62.2035 79.2486 69.0626C79.3531 69.3803 79.4217 69.7088 79.4532 70.042C79.5727 71.3078 79.6338 72.5897 79.6338 73.8846C79.6338 96.0397 61.8072 114 39.8169 114C17.8266 114 0 96.0397 0 73.8846Z" fill="url(#paint0_linear)"/>
<path fill-rule="evenodd" clip-rule="evenodd" d="M39.8169 51.5983C42.2603 51.5983 44.241 53.5939 44.241 56.0556V72.0384L56.2175 84.1047C57.9452 85.8453 57.9452 88.6675 56.2175 90.4082C54.4898 92.1489 51.6886 92.1489 49.9609 90.4082L36.6886 77.0364C35.8589 76.2005 35.3928 75.0668 35.3928 73.8846V56.0556C35.3928 53.5939 37.3735 51.5983 39.8169 51.5983Z" fill="url(#paint1_linear)"/>
<path fill-rule="evenodd" clip-rule="evenodd" d="M70.9161 8.80177C73.5472 -2.93392 90.1444 -2.93393 92.7756 8.80177C93.1343 10.4016 94.9566 11.1621 96.3331 10.2864C106.43 3.86246 118.166 15.6864 111.79 25.8593C110.921 27.2461 111.676 29.0821 113.264 29.4434C124.912 32.0944 124.912 48.816 113.264 51.4669C111.676 51.8283 110.921 53.6642 111.79 55.051C118.166 65.2239 106.43 77.0479 96.3331 70.6239C94.9566 69.7482 93.1343 70.5087 92.7756 72.1085C90.1444 83.8442 73.5472 83.8442 70.9161 72.1085C70.5574 70.5087 68.7351 69.7482 67.3586 70.6239C57.2614 77.0478 45.5254 65.2239 51.9015 55.051C52.7707 53.6642 52.0159 51.8283 50.428 51.4669C38.7796 48.816 38.7796 32.0944 50.428 29.4434C52.0159 29.0821 52.7708 27.2461 51.9015 25.8593C45.5254 15.6864 57.2614 3.86246 67.3586 10.2864C68.7351 11.1621 70.5574 10.4016 70.9161 8.80177ZM84.1449 10.7659C83.5914 8.29739 80.1003 8.29739 79.5468 10.7659C77.8415 18.3719 69.1782 21.9872 62.6343 17.8239C60.5104 16.4726 58.0417 18.9597 59.3829 21.0996C63.5153 27.6926 59.9268 36.4208 52.3775 38.1389C49.9273 38.6965 49.9273 42.2138 52.3775 42.7714C59.9269 44.4895 63.5153 53.2177 59.3829 59.8108C58.0417 61.9506 60.5103 64.4377 62.6343 63.0865C69.1783 58.9231 77.8415 62.5385 79.5468 70.1444C80.1003 72.6129 83.5914 72.6129 84.1449 70.1444C85.8502 62.5385 94.5134 58.9231 101.057 63.0864C103.181 64.4377 105.65 61.9506 104.309 59.8108C100.176 53.2177 103.765 44.4895 111.314 42.7714C113.764 42.2138 113.764 38.6965 111.314 38.1389C103.765 36.4208 100.176 27.6926 104.309 21.0996C105.65 18.9597 103.181 16.4726 101.057 17.8239C94.5134 21.9872 85.8502 18.3719 84.1449 10.7659Z" fill="url(#paint2_linear)"/>
<path fill-rule="evenodd" clip-rule="evenodd" d="M97.3943 25.4899C99.4895 26.7565 100.169 29.4944 98.9118 31.6052L85.6395 53.8916C85.017 54.9368 83.9968 55.6796 82.8164 55.947C81.636 56.2144 80.3985 55.9831 79.3918 55.307L66.1195 46.3925C64.0865 45.027 63.5371 42.2596 64.8925 40.2113C66.2478 38.1631 68.9946 37.6096 71.0276 38.9751L80.4394 45.2967L91.3245 27.0188C92.5816 24.9079 95.2991 24.2234 97.3943 25.4899Z" fill="url(#paint3_linear)"/>
<defs>
<linearGradient id="paint0_linear" x1="-1.3359e-07" y1="57.3931" x2="122" y2="57.3931" gradientUnits="userSpaceOnUse">
<stop stop-color="#027BBB"/>
<stop offset="0.395833" stop-color="#24D6CB"/>
<stop offset="0.994792" stop-color="#0076BA"/>
</linearGradient>
<linearGradient id="paint1_linear" x1="-1.3359e-07" y1="57.3931" x2="122" y2="57.3931" gradientUnits="userSpaceOnUse">
<stop stop-color="#027BBB"/>
<stop offset="0.395833" stop-color="#24D6CB"/>
<stop offset="0.994792" stop-color="#0076BA"/>
</linearGradient>
<linearGradient id="paint2_linear" x1="-1.3359e-07" y1="57.3931" x2="122" y2="57.3931" gradientUnits="userSpaceOnUse">
<stop stop-color="#027BBB"/>
<stop offset="0.395833" stop-color="#24D6CB"/>
<stop offset="0.994792" stop-color="#0076BA"/>
</linearGradient>
<linearGradient id="paint3_linear" x1="-1.3359e-07" y1="57.3931" x2="122" y2="57.3931" gradientUnits="userSpaceOnUse">
<stop stop-color="#027BBB"/>
<stop offset="0.395833" stop-color="#24D6CB"/>
<stop offset="0.994792" stop-color="#0076BA"/>
</linearGradient>
</defs>
</svg>
