<svg width="43" height="26" viewBox="0 0 43 26" fill="none" xmlns="http://www.w3.org/2000/svg">
<path d="M42.0141 1.76071C42.3145 0.744917 42.0141 0 40.5935 0H35.8876C34.6902 0 34.143 0.64443 33.8426 1.35221C33.8426 1.35221 31.4499 7.29188 28.0595 11.1432C26.9651 12.2638 26.4651 12.6177 25.8685 12.6177C25.5702 12.6177 25.1368 12.2638 25.1368 11.248V1.76071C25.1368 0.541758 24.7913 0 23.7935 0H16.3988C15.652 0 15.2014 0.563603 15.2014 1.10099C15.2014 2.25441 16.8966 2.52092 17.0704 5.77147V12.8231C17.0704 14.3675 16.7979 14.6493 16.1971 14.6493C14.6027 14.6493 10.7229 8.68778 8.42041 1.86338C7.97193 0.537389 7.51915 0.00218539 6.31746 0.00218539H1.6137C0.268235 0.00218539 0 0.646615 0 1.35439C0 2.62578 1.59439 8.91716 7.42687 17.2379C11.3152 22.9198 16.7893 26 21.7763 26C24.7655 26 25.1346 25.3162 25.1346 24.1366V19.8419C25.1346 18.4744 25.42 18.1991 26.3664 18.1991C27.0616 18.1991 28.259 18.5574 31.0508 21.2946C34.2396 24.5407 34.7675 25.9978 36.5593 25.9978H41.263C42.6064 25.9978 43.278 25.3141 42.8918 23.964C42.469 22.6206 40.9454 20.6654 38.924 18.352C37.8253 17.0326 36.1837 15.6127 35.6838 14.9027C34.9863 13.9874 35.1881 13.5833 35.6838 12.7706C35.6859 12.7728 41.4175 4.5547 42.0141 1.76071Z" fill="white"/>
</svg>
