<svg width="60" height="60" viewBox="0 0 60 60" fill="none" xmlns="http://www.w3.org/2000/svg">
<circle cx="30" cy="30" r="29" stroke="white" stroke-width="2"/>
<path fill-rule="evenodd" clip-rule="evenodd" d="M44.3119 22.2189C44.5194 21.5169 44.3119 21 43.3182 21H40.037C39.202 21 38.817 21.4461 38.6083 21.9386C38.6083 21.9386 36.9395 26.0477 34.5758 28.7169C33.8109 29.4909 33.4634 29.7364 33.0459 29.7364C32.8371 29.7364 32.5234 29.4909 32.5234 28.7876V22.2189C32.5234 21.3754 32.2934 21 31.5984 21H26.4385C25.9173 21 25.6035 21.3909 25.6035 21.7624C25.6035 22.5609 26.786 22.746 26.9073 24.9934V29.8766C26.9073 30.9476 26.716 31.1417 26.2985 31.1417C25.186 31.1417 22.4798 27.0133 20.8736 22.2896C20.5624 21.3703 20.2474 21 19.4087 21H16.125C15.1875 21 15 21.4461 15 21.9386C15 22.8154 16.1125 27.1714 20.1811 32.9327C22.8936 36.867 26.7123 39 30.1909 39C32.2771 39 32.5346 38.5269 32.5346 37.7104V34.7366C32.5346 33.789 32.7321 33.6 33.3934 33.6C33.8809 33.6 34.7146 33.8469 36.662 35.7433C38.887 37.992 39.2532 39 40.5057 39H43.7869C44.7244 39 45.1944 38.5269 44.9244 37.5909C44.6269 36.66 43.5644 35.3087 42.1557 33.7054C41.3907 32.7926 40.2432 31.809 39.8945 31.3166C39.4082 30.6853 39.547 30.4037 39.8945 29.8419C39.8945 29.8419 43.8944 24.1513 44.3106 22.2189H44.3119Z" fill="white"/>
</svg>
