<svg width="60" height="60" viewBox="0 0 60 60" fill="none" xmlns="http://www.w3.org/2000/svg">
<circle cx="30" cy="30" r="29" stroke="white" stroke-width="2"/>
<path fill-rule="evenodd" clip-rule="evenodd" d="M39.2117 21.6336C38.0125 20.4783 36.5856 19.5624 35.0137 18.9386C33.4419 18.3149 31.7564 17.9959 30.0548 18C22.9196 18 17.111 23.5573 17.1082 30.3882C17.1082 32.5714 17.7037 34.7021 18.8357 36.5817L17 43L23.8627 41.2764C25.761 42.2653 27.8877 42.7838 30.049 42.7847H30.0548C37.1885 42.7847 42.9971 37.2275 42.9999 30.3965C43.0048 28.7688 42.6726 27.1563 42.0224 25.6522C41.3721 24.1481 40.4168 22.7822 39.2117 21.6336ZM30.0548 40.694H30.0504C28.1232 40.6942 26.2314 40.198 24.5736 39.2575L24.1813 39.0339L20.109 40.0565L21.1949 36.2574L20.9396 35.8682C19.8621 34.2266 19.2917 32.3268 19.2943 30.3882C19.2972 24.7109 24.1237 20.0921 30.0591 20.0921C31.4727 20.0891 32.8728 20.3544 34.1785 20.8727C35.4842 21.391 36.6695 22.1519 37.6658 23.1115C38.6675 24.0665 39.4615 25.2021 40.0018 26.4525C40.5421 27.7029 40.8181 29.0434 40.8138 30.3965C40.8109 36.0738 35.9844 40.694 30.0548 40.694ZM35.957 32.9812C35.6326 32.8253 34.0434 32.0774 33.7464 31.9739C33.4508 31.8704 33.2359 31.8193 33.0196 32.1284C32.8033 32.4375 32.1832 33.1344 31.9943 33.3414C31.8054 33.5484 31.6165 33.5733 31.2935 33.4187C30.9705 33.2641 29.9279 32.9371 28.692 31.8828C27.7302 31.0617 27.0813 30.0488 26.8924 29.7383C26.7035 29.4278 26.8722 29.2608 27.0351 29.1062C27.1808 28.9682 27.3582 28.7447 27.5197 28.5639C27.6812 28.3831 27.7345 28.2548 27.8427 28.0478C27.9508 27.8408 27.8975 27.66 27.8153 27.5054C27.7345 27.3495 27.0871 25.826 26.8174 25.2064C26.5564 24.6061 26.2896 24.6861 26.0906 24.6778C25.8845 24.6698 25.6782 24.6661 25.472 24.6668C25.308 24.6708 25.1466 24.7072 24.9979 24.7737C24.8493 24.8402 24.7166 24.9353 24.6082 25.0532C24.3111 25.3637 23.4762 26.1116 23.4762 27.6352C23.4762 29.1587 24.6356 30.6311 24.7971 30.8381C24.9586 31.0451 27.0784 34.1708 30.323 35.5122C31.0959 35.8309 31.6987 36.0214 32.1674 36.1649C32.9417 36.4009 33.6469 36.3664 34.205 36.2877C34.8265 36.1994 36.1185 35.5398 36.3882 34.8166C36.6579 34.0935 36.6579 33.4739 36.5771 33.3442C36.4964 33.2145 36.2786 33.1358 35.957 32.9812Z" fill="white"/>
</svg>
