<svg width="60" height="60" viewBox="0 0 60 60" fill="none" xmlns="http://www.w3.org/2000/svg">
<circle cx="30" cy="30" r="29" stroke="white" stroke-width="2"/>
<path d="M30.5 25.46C29.5032 25.46 28.5287 25.7556 27.6999 26.3094C26.8711 26.8632 26.2251 27.6503 25.8436 28.5713C25.4622 29.4922 25.3624 30.5056 25.5568 31.4833C25.7513 32.4609 26.2313 33.359 26.9362 34.0638C27.641 34.7687 28.5391 35.2487 29.5167 35.4432C30.4944 35.6376 31.5078 35.5378 32.4287 35.1564C33.3497 34.7749 34.1368 34.1289 34.6906 33.3001C35.2444 32.4713 35.54 31.4968 35.54 30.5C35.5385 29.1638 35.007 27.8827 34.0622 26.9378C33.1173 25.993 31.8362 25.4615 30.5 25.46ZM30.5 33.86C29.8355 33.86 29.1858 33.6629 28.6333 33.2937C28.0807 32.9245 27.6501 32.3998 27.3958 31.7858C27.1415 31.1719 27.0749 30.4963 27.2046 29.8445C27.3342 29.1927 27.6542 28.594 28.1241 28.1241C28.594 27.6542 29.1927 27.3342 29.8445 27.2046C30.4963 27.0749 31.1719 27.1415 31.7858 27.3958C32.3998 27.6501 32.9245 28.0807 33.2937 28.6333C33.6629 29.1858 33.86 29.8355 33.86 30.5C33.859 31.3908 33.5047 32.2449 32.8748 32.8748C32.2449 33.5047 31.3908 33.859 30.5 33.86ZM35.12 20H25.88C24.3211 20.0018 22.8265 20.6218 21.7242 21.7242C20.6218 22.8265 20.0018 24.3211 20 25.88V35.12C20.0018 36.6789 20.6218 38.1735 21.7242 39.2758C22.8265 40.3782 24.3211 40.9982 25.88 41H35.12C36.6789 40.9982 38.1735 40.3782 39.2758 39.2758C40.3782 38.1735 40.9982 36.6789 41 35.12V25.88C40.9982 24.3211 40.3782 22.8265 39.2758 21.7242C38.1735 20.6218 36.6789 20.0018 35.12 20ZM39.32 35.12C39.3187 36.2335 38.8758 37.3011 38.0885 38.0885C37.3011 38.8758 36.2335 39.3187 35.12 39.32H25.88C24.7665 39.3187 23.6989 38.8758 22.9115 38.0885C22.1242 37.3011 21.6813 36.2335 21.68 35.12V25.88C21.6813 24.7665 22.1242 23.6989 22.9115 22.9115C23.6989 22.1242 24.7665 21.6813 25.88 21.68H35.12C36.2335 21.6813 37.3011 22.1242 38.0885 22.9115C38.8758 23.6989 39.3187 24.7665 39.32 25.88V35.12ZM37.22 25.04C37.22 25.2892 37.1461 25.5328 37.0077 25.74C36.8692 25.9472 36.6724 26.1087 36.4422 26.2041C36.2119 26.2995 35.9586 26.3244 35.7142 26.2758C35.4698 26.2272 35.2453 26.1072 35.069 25.931C34.8928 25.7547 34.7728 25.5302 34.7242 25.2858C34.6756 25.0414 34.7005 24.7881 34.7959 24.5578C34.8913 24.3276 35.0528 24.1308 35.26 23.9923C35.4672 23.8539 35.7108 23.78 35.96 23.78C36.2942 23.78 36.6147 23.9127 36.851 24.149C37.0872 24.3853 37.22 24.7058 37.22 25.04Z" fill="white"/>
</svg>
