<svg width="16" height="16" viewBox="0 0 16 16" fill="none" xmlns="http://www.w3.org/2000/svg">
<path d="M7.35191 1.44309C7.5759 0.852302 8.42357 0.852302 8.64826 1.44309L10.0972 5.45683C10.1987 5.72283 10.457 5.89993 10.7454 5.89993H14.3061C14.9641 5.89993 15.2511 6.71891 14.7338 7.12001L12.1999 9.39987C12.0864 9.48713 12.0034 9.6081 11.963 9.74543C11.9225 9.88276 11.9265 10.0294 11.9745 10.1643L12.8999 14.0863C13.1253 14.7163 12.3959 15.2574 11.8443 14.8696L8.40257 12.6856C8.2847 12.6028 8.14415 12.5583 8.00008 12.5583C7.85602 12.5583 7.71547 12.6028 7.5976 12.6856L4.15586 14.8696C3.60498 15.2574 2.87491 14.7156 3.1003 14.0863L4.02566 10.1643C4.07366 10.0294 4.07771 9.88276 4.03722 9.74543C3.99672 9.6081 3.91378 9.48713 3.80027 9.39987L1.26638 7.12001C0.748407 6.71891 1.03679 5.89993 1.69336 5.89993H5.25411C5.3943 5.90039 5.53134 5.85828 5.64708 5.77916C5.76282 5.70004 5.85181 5.58764 5.90228 5.45683L7.35191 1.44309Z" fill="#F4DE18" stroke="#F4DE18" stroke-linecap="round" stroke-linejoin="round"/>
</svg>
